# xmcd
#
# Track frame offsets: 
#        150
#        13770
#        26647
#        37767
#        50297
#        64195
#        76100
#        89730
#        104195
#        126392
#        139605
#        155020
#        168542
#        182967
#        196710
#        213202
#        229410
#        246040
#        260925
#        272545
#
# Disc length: 3832 seconds
#
# Revision: 0
# Processed by: cddbd v1.5.2PL0 Copyright (c) Steve Scherf et al.
# Submitted via: ExactAudioCopy v0.95b4
#
DISCID=210ef614
DTITLE=Gary Stewart - The Best Of
DYEAR=1999
DGENRE=Country
TTITLE0=Drinkin' Thing
TTITLE1=Honky tonkin'
TTITLE2=Draggin' Shackles
TTITLE3=She's Actin' Single (I'm Drinkin' Doubles)
TTITLE4=Back Sliders Wine
TTITLE5=Sweet Country Red
TTITLE6=Out Of Hand
TTITLE7=Williamson County
TTITLE8=Trudy
TTITLE9=Lord What A Woman
TTITLE10=Hank Western
TTITLE11=Easy People
TTITLE12=In Some Room Above The Street
TTITLE13=Your Place Or Mine
TTITLE14=Rachel
TTITLE15=Drinking Again
TTITLE16=I Ain't Living Long Like This
TTITLE17=Broken Hearted People (Take Me To A Barrom)
TTITLE18=Ten Years Of This
TTITLE19=Dancing Eyes
EXTD=
EXTT0=
EXTT1=
EXTT2=
EXTT3=
EXTT4=
EXTT5=
EXTT6=
EXTT7=
EXTT8=
EXTT9=
EXTT10=
EXTT11=
EXTT12=
EXTT13=
EXTT14=
EXTT15=
EXTT16=
EXTT17=
EXTT18=
EXTT19=
PLAYORDER=
